<svg xmlns="http://www.w3.org/2000/svg" xmlns:xlink="http://www.w3.org/1999/xlink" width="500" zoomAndPan="magnify" viewBox="0 0 375 374.999991" height="500" preserveAspectRatio="xMidYMid meet" version="1.0"><defs><clipPath id="59e0075643"><path d="M 43.953125 22.328125 L 114.453125 22.328125 L 114.453125 349.328125 L 43.953125 349.328125 Z M 43.953125 22.328125 " clip-rule="nonzero"/></clipPath><clipPath id="fa6f960894"><path d="M 43.851562 68 L 114.351562 68 L 114.351562 128 L 43.851562 128 Z M 43.851562 68 " clip-rule="nonzero"/></clipPath><clipPath id="2988b4c01a"><path d="M 260.960938 22.328125 L 331.460938 22.328125 L 331.460938 349.328125 L 260.960938 349.328125 Z M 260.960938 22.328125 " clip-rule="nonzero"/></clipPath><clipPath id="4ca6443b61"><path d="M 260.960938 78.210938 L 331.460938 78.210938 L 331.460938 117.960938 L 260.960938 117.960938 Z M 260.960938 78.210938 " clip-rule="nonzero"/></clipPath><clipPath id="1f9c1100f9"><path d="M 117 30 L 258 30 L 258 349 L 117 349 Z M 117 30 " clip-rule="nonzero"/></clipPath><clipPath id="f8b0645dc7"><path d="M 113.078125 36.589844 L 141.816406 25.644531 L 262.214844 341.738281 L 233.480469 352.683594 Z M 113.078125 36.589844 " clip-rule="nonzero"/></clipPath><clipPath id="026d431ad0"><path d="M 129 68 L 185 68 L 185 151 L 129 151 Z M 129 68 " clip-rule="nonzero"/></clipPath><clipPath id="940397d6a5"><path d="M 129.65625 78.6875 L 157.714844 68.074219 L 184.785156 139.625 L 156.726562 150.238281 Z M 129.65625 78.6875 " clip-rule="nonzero"/></clipPath></defs><g clip-path="url(#59e0075643)"><path fill="#e27979" d="M 59.019531 22.332031 L 99.386719 22.332031 C 103.382812 22.332031 107.214844 23.910156 110.039062 26.71875 C 112.863281 29.53125 114.453125 33.34375 114.453125 37.316406 L 114.453125 334.34375 C 114.453125 338.316406 112.863281 342.128906 110.039062 344.9375 C 107.214844 347.75 103.382812 349.328125 99.386719 349.328125 L 59.019531 349.328125 C 55.023438 349.328125 51.191406 347.75 48.367188 344.9375 C 45.539062 342.128906 43.953125 338.316406 43.953125 334.34375 L 43.953125 37.316406 C 43.953125 33.34375 45.539062 29.53125 48.367188 26.71875 C 51.191406 23.910156 55.023438 22.332031 59.019531 22.332031 " fill-opacity="1" fill-rule="nonzero"/></g><g clip-path="url(#fa6f960894)"><path fill="#a46666" d="M 43.851562 68 L 114.351562 68 L 114.351562 128 L 43.851562 128 L 43.851562 68 " fill-opacity="1" fill-rule="nonzero"/></g><g clip-path="url(#2988b4c01a)"><path fill="#e27979" d="M 276.03125 22.332031 L 316.394531 22.332031 C 320.390625 22.332031 324.222656 23.910156 327.050781 26.71875 C 329.875 29.53125 331.460938 33.34375 331.460938 37.316406 L 331.460938 334.34375 C 331.460938 338.316406 329.875 342.128906 327.050781 344.9375 C 324.222656 347.75 320.390625 349.328125 316.394531 349.328125 L 276.03125 349.328125 C 272.035156 349.328125 268.203125 347.75 265.375 344.9375 C 262.550781 342.128906 260.960938 338.316406 260.960938 334.34375 L 260.960938 37.316406 C 260.960938 33.34375 262.550781 29.53125 265.375 26.71875 C 268.203125 23.910156 272.035156 22.332031 276.03125 22.332031 " fill-opacity="1" fill-rule="nonzero"/></g><g clip-path="url(#4ca6443b61)"><path fill="#a46666" d="M 260.964844 78.210938 L 331.460938 78.210938 L 331.460938 117.960938 L 260.964844 117.960938 L 260.964844 78.210938 " fill-opacity="1" fill-rule="nonzero"/></g><g clip-path="url(#1f9c1100f9)"><g clip-path="url(#f8b0645dc7)"><path fill="#a46666" d="M 127.464844 31.164062 C 131.277344 29.714844 135.5 29.820312 139.210938 31.460938 C 142.921875 33.101562 145.8125 36.140625 147.25 39.914062 L 256.78125 327.46875 C 258.214844 331.242188 258.082031 335.433594 256.402344 339.128906 C 254.722656 342.820312 251.640625 345.710938 247.828125 347.164062 C 244.019531 348.613281 239.792969 348.507812 236.082031 346.867188 C 232.371094 345.226562 229.480469 342.1875 228.042969 338.414062 L 118.515625 50.859375 C 117.078125 47.089844 117.214844 42.894531 118.890625 39.199219 C 120.570312 35.507812 123.65625 32.617188 127.464844 31.164062 " fill-opacity="1" fill-rule="nonzero"/></g></g><g clip-path="url(#026d431ad0)"><g clip-path="url(#940397d6a5)"><path fill="#e27979" d="M 129.65625 78.6875 L 157.714844 68.074219 L 184.785156 139.625 L 156.726562 150.238281 L 129.65625 78.6875 " fill-opacity="1" fill-rule="nonzero"/></g></g></svg>